<svg width="28.308594" height="28.308594" viewBox="0 0 28.3086 28.3086" fill="none" xmlns="http://www.w3.org/2000/svg" xmlns:xlink="http://www.w3.org/1999/xlink">
	<desc>
			Created with Pixso.
	</desc>
	<defs/>
	<path id="Vector" d="M25.16 15.72L25.16 23.59C25.16 24.45 24.45 25.16 23.59 25.16L4.71 25.16C3.85 25.16 3.14 24.45 3.14 23.59L3.14 15.72C3.14 14.86 2.43 14.15 1.57 14.15C0.7 14.15 0 14.86 0 15.72L0 25.16C0 26.89 1.41 28.3 3.14 28.3L25.16 28.3C26.89 28.3 28.3 26.89 28.3 25.16L28.3 15.72C28.3 14.86 27.6 14.15 26.73 14.15C25.87 14.15 25.16 14.86 25.16 15.72ZM15.72 15.2L18.68 12.25C19.29 11.63 20.28 11.63 20.9 12.25C21.51 12.86 21.51 13.85 20.9 14.46L15.25 20.11C14.64 20.72 13.65 20.72 13.03 20.11L7.39 14.46C6.77 13.85 6.77 12.86 7.39 12.25C8 11.63 8.99 11.63 9.6 12.25L12.58 15.2L12.58 1.57C12.58 0.7 13.28 0 14.15 0C15.01 0 15.72 0.7 15.72 1.57L15.72 15.2Z" fill="#000000" fill-opacity="1.000000" fill-rule="nonzero"/>
</svg>
