<svg width="30.484863" height="26.898010" viewBox="0 0 30.4849 26.898" fill="none" xmlns="http://www.w3.org/2000/svg" xmlns:xlink="http://www.w3.org/1999/xlink">
	<desc>
			Created with Pixso.
	</desc>
	<defs/>
	<path id="Vector" d="M3.54 0L1.57 1.93L26.93 26.89L28.91 24.95L3.54 0Z" fill="#000000" fill-opacity="0.600000" fill-rule="evenodd"/>
	<path id="Vector" d="M5.73 6.03L7.59 7.86C5.56 9.56 3.94 11.68 2.9 13.53L2.89 13.54C5.8 18.32 10.42 22.85 16.25 22.16C17.82 21.98 19.29 21.45 20.63 20.69L22.51 22.54C19.9 24.19 16.9 25.06 13.65 24.63C7.8 23.85 3.01 19.13 0 13.58C1.41 10.77 3.35 8.09 5.73 6.03ZM9.95 3.33C11.59 2.61 13.36 2.19 15.25 2.16C15.36 2.16 16.61 2.21 17.17 2.31C17.53 2.36 17.88 2.43 18.23 2.52C23.78 3.95 27.89 8.57 30.48 13.33C29.39 15.48 27.97 17.59 26.28 19.39L24.48 17.62C25.73 16.29 26.78 14.81 27.58 13.38C27.58 13.38 26.77 12.1 26.16 11.3C25.76 10.78 25.35 10.28 24.91 9.8C24.57 9.42 23.24 8.12 22.92 7.86C20.79 6.05 18.29 4.64 15.28 4.66C14.12 4.68 13.01 4.9 11.94 5.28L9.95 3.33Z" fill="#000000" fill-opacity="0.600000" fill-rule="nonzero"/>
	<path id="Vector" d="M10.79 11L12.22 12.41L17.73 17.83C16.99 18.24 16.14 18.47 15.24 18.47C12.42 18.47 10.14 16.22 10.14 13.45C10.14 12.56 10.37 11.73 10.79 11ZM15.14 8.43C15.18 8.43 15.21 8.43 15.24 8.43C18.05 8.43 20.34 10.68 20.34 13.45C20.34 13.48 20.34 13.51 20.34 13.55L15.14 8.43Z" fill="#000000" fill-opacity="0.600000" fill-rule="evenodd"/>
</svg>
