<svg width="42.000000" height="41.929321" viewBox="0 0 42 41.9293" fill="none" xmlns="http://www.w3.org/2000/svg" xmlns:xlink="http://www.w3.org/1999/xlink">
	<desc>
			Created with Pixso.
	</desc>
	<defs/>
	<path id="Layer 15" d="M1 6.96L8.08 6.96C8.33 8.35 9.05 9.61 10.14 10.52C11.22 11.43 12.58 11.92 14 11.92C15.41 11.92 16.77 11.43 17.85 10.52C18.94 9.61 19.66 8.35 19.91 6.96L41 6.96C41.26 6.96 41.51 6.85 41.7 6.67C41.89 6.48 42 6.22 42 5.96C42 5.69 41.89 5.44 41.7 5.25C41.51 5.07 41.26 4.96 41 4.96L19.91 4.96C19.66 3.57 18.94 2.31 17.85 1.4C16.77 0.49 15.41 0 14 0C12.58 0 11.22 0.49 10.14 1.4C9.05 2.31 8.33 3.57 8.08 4.96L1 4.96C0.73 4.96 0.48 5.07 0.29 5.25C0.1 5.44 0 5.69 0 5.96C0 6.22 0.1 6.48 0.29 6.67C0.48 6.85 0.73 6.96 1 6.96ZM14 1.96C14.79 1.96 15.56 2.19 16.22 2.63C16.87 3.07 17.39 3.7 17.69 4.43C17.99 5.16 18.07 5.96 17.92 6.74C17.76 7.52 17.38 8.23 16.82 8.79C16.26 9.35 15.55 9.73 14.78 9.88C14 10.04 13.2 9.96 12.46 9.66C11.73 9.35 11.11 8.84 10.67 8.18C10.23 7.52 10 6.75 10 5.96C10 4.9 10.42 3.88 11.17 3.13C11.92 2.38 12.93 1.96 14 1.96ZM41 19.96L33.91 19.96C33.66 18.57 32.94 17.31 31.85 16.4C30.77 15.49 29.41 15 28 15C26.58 15 25.22 15.49 24.14 16.4C23.05 17.31 22.33 18.57 22.08 19.96L1 19.96C0.73 19.96 0.48 20.07 0.29 20.25C0.1 20.44 0 20.69 0 20.96C0 21.22 0.1 21.48 0.29 21.67C0.48 21.85 0.73 21.96 1 21.96L22.08 21.96C22.33 23.35 23.05 24.61 24.14 25.52C25.22 26.43 26.58 26.92 28 26.92C29.41 26.92 30.77 26.43 31.85 25.52C32.94 24.61 33.66 23.35 33.91 21.96L41 21.96C41.26 21.96 41.51 21.85 41.7 21.67C41.89 21.48 42 21.22 42 20.96C42 20.69 41.89 20.44 41.7 20.25C41.51 20.07 41.26 19.96 41 19.96ZM28 24.96C27.2 24.96 26.43 24.73 25.77 24.29C25.12 23.85 24.6 23.22 24.3 22.49C24 21.76 23.92 20.96 24.07 20.18C24.23 19.4 24.61 18.69 25.17 18.13C25.73 17.57 26.44 17.19 27.21 17.04C27.99 16.88 28.79 16.96 29.53 17.26C30.26 17.57 30.88 18.08 31.32 18.74C31.76 19.4 32 20.17 32 20.96C32 22.02 31.57 23.04 30.82 23.79C30.07 24.54 29.06 24.96 28 24.96ZM41 34.96L19.91 34.96C19.66 33.57 18.94 32.31 17.85 31.4C16.77 30.49 15.41 30 14 30C12.58 30 11.22 30.49 10.14 31.4C9.05 32.31 8.33 33.57 8.08 34.96L1 34.96C0.73 34.96 0.48 35.07 0.29 35.25C0.1 35.44 0 35.69 0 35.96C0 36.22 0.1 36.48 0.29 36.67C0.48 36.85 0.73 36.96 1 36.96L8.08 36.96C8.33 38.35 9.05 39.61 10.14 40.52C11.22 41.43 12.58 41.92 14 41.92C15.41 41.92 16.77 41.43 17.85 40.52C18.94 39.61 19.66 38.35 19.91 36.96L41 36.96C41.26 36.96 41.51 36.85 41.7 36.67C41.89 36.48 42 36.22 42 35.96C42 35.69 41.89 35.44 41.7 35.25C41.51 35.07 41.26 34.96 41 34.96ZM14 39.96C13.2 39.96 12.43 39.73 11.77 39.29C11.12 38.85 10.6 38.22 10.3 37.49C10 36.76 9.92 35.96 10.07 35.18C10.23 34.4 10.61 33.69 11.17 33.13C11.73 32.57 12.44 32.19 13.21 32.04C13.99 31.88 14.79 31.96 15.53 32.26C16.26 32.57 16.88 33.08 17.32 33.74C17.76 34.4 18 35.17 18 35.96C18 37.02 17.57 38.04 16.82 38.79C16.07 39.54 15.06 39.96 14 39.96Z" fill="#000000" fill-opacity="1.000000" fill-rule="nonzero"/>
</svg>
