<svg width="25.000000" height="28.000000" viewBox="0 0 25 28" fill="none" xmlns="http://www.w3.org/2000/svg" xmlns:xlink="http://www.w3.org/1999/xlink">
	<desc>
			Created with Pixso.
	</desc>
	<defs/>
	<path id="Vector" d="M0 25.76L0 2.23C0 1.84 0.1 1.45 0.3 1.11C0.5 0.77 0.79 0.49 1.13 0.29C1.48 0.1 1.87 -0.01 2.27 0C2.67 0 3.06 0.1 3.41 0.3L23.87 12.06C24.21 12.26 24.5 12.54 24.69 12.88C24.89 13.22 25 13.61 25 14C25 14.39 24.89 14.77 24.69 15.11C24.5 15.45 24.21 15.73 23.87 15.93L3.41 27.69C3.06 27.89 2.67 27.99 2.27 28C1.87 28 1.48 27.89 1.13 27.7C0.79 27.5 0.5 27.22 0.3 26.88C0.1 26.54 0 26.15 0 25.76Z" fill="#000000" fill-opacity="1.000000" fill-rule="nonzero"/>
</svg>
